<svg xmlns="http://www.w3.org/2000/svg" viewBox="0 0 1200 772" font-family="system-ui, -apple-system, sans-serif">
  <defs>
    <style>
      .bg { fill: #0D1117; }
      .card { fill: #161B22; stroke: #30363D; stroke-width: 1; rx: 8; }
      .card-hi { fill: #161B22; stroke: #34D399; stroke-width: 1.5; rx: 8; }
      .title { fill: #E6EDF3; font-size: 13px; font-weight: 600; }
      .sub { fill: #8B949E; font-size: 10px; }
      .label { fill: #34D399; font-size: 9px; font-weight: 600; letter-spacing: 0.08em; }
      .heading { fill: #E6EDF3; font-size: 16px; font-weight: 700; letter-spacing: -0.02em; }
      .dim { fill: #8B949E; font-size: 11px; }
      .sec { fill: #34D399; font-size: 10px; font-weight: 600; letter-spacing: 0.1em; }
      .cmd { fill: #8B949E; font-size: 9px; font-family: ui-monospace, SFMono-Regular, Menlo, monospace; }
      .dot { fill: #34D399; }
      .count { fill: #6E7681; font-size: 10px; font-weight: 500; }
    </style>
  </defs>

  <rect class="bg" width="1200" height="772"/>

  <text class="heading" x="40" y="36">Composite Stacks</text>
  <text class="dim" x="40" y="52">Pre-configured template combinations for common AI project architectures · 24 composites across 7 categories</text>

  <!-- ─── QUICK START ─── -->
  <text class="sec" x="40" y="82">QUICK START</text>
  <text class="count" x="790" y="82" text-anchor="end">3 composites</text>
  <rect class="card-hi" x="40" y="90" width="180" height="40"/>
  <text class="title" x="52" y="106">proof-of-concept</text>
  <text class="sub" x="52" y="120">AI agent + eval harness</text>
  <rect class="card" x="230" y="90" width="180" height="40"/>
  <text class="title" x="242" y="106">eval-suite</text>
  <text class="sub" x="242" y="120">Evals + prompts + guardrails</text>
  <rect class="card" x="420" y="90" width="180" height="40"/>
  <text class="title" x="432" y="106">research-to-prototype</text>
  <text class="sub" x="432" y="120">PRD → agentic-loop prototype</text>

  <!-- ─── CUSTOMER-FACING AI ─── -->
  <text class="sec" x="40" y="152">CUSTOMER-FACING AI</text>
  <text class="count" x="790" y="152" text-anchor="end">4 composites</text>
  <rect class="card-hi" x="40" y="160" width="180" height="40"/>
  <text class="title" x="52" y="176">ai-chatbot</text>
  <text class="sub" x="52" y="190">Full-stack chatbot</text>
  <rect class="card" x="230" y="160" width="180" height="40"/>
  <text class="title" x="242" y="176">ai-web-app</text>
  <text class="sub" x="242" y="190">Next.js + RAG + auth + DB</text>
  <rect class="card" x="420" y="160" width="180" height="40"/>
  <text class="title" x="432" y="176">document-intelligence</text>
  <text class="sub" x="432" y="190">RAG + service + storage</text>
  <rect class="card" x="610" y="160" width="180" height="40"/>
  <text class="title" x="622" y="176">rag-agent</text>
  <text class="sub" x="622" y="190">Agent + RAG + vectors + DB</text>

  <!-- ─── PRODUCTION SERVICES ─── -->
  <text class="sec" x="40" y="222">PRODUCTION SERVICES</text>
  <text class="count" x="790" y="222" text-anchor="end">4 composites</text>
  <rect class="card-hi" x="40" y="230" width="180" height="40"/>
  <text class="title" x="52" y="246">production-api</text>
  <text class="sub" x="52" y="260">Auth, DB, cache, queue, otel</text>
  <rect class="card" x="230" y="230" width="180" height="40"/>
  <text class="title" x="242" y="246">ai-platform</text>
  <text class="sub" x="242" y="260">Service + gateway + billing</text>
  <rect class="card" x="420" y="230" width="180" height="40"/>
  <text class="title" x="432" y="246">enterprise-ai</text>
  <text class="sub" x="432" y="260">Full enterprise AI platform</text>
  <rect class="card" x="610" y="230" width="180" height="40"/>
  <text class="title" x="622" y="246">background-processor</text>
  <text class="sub" x="622" y="260">Worker + queue + storage</text>

  <!-- ─── AI OPERATIONS ─── -->
  <text class="sec" x="40" y="292">AI OPERATIONS</text>
  <text class="count" x="790" y="292" text-anchor="end">4 composites</text>
  <rect class="card-hi" x="40" y="300" width="180" height="40"/>
  <text class="title" x="52" y="316">agent-team</text>
  <text class="sub" x="52" y="330">Orchestrator + specialists</text>
  <rect class="card" x="230" y="300" width="180" height="40"/>
  <text class="title" x="242" y="316">cost-optimized-ai</text>
  <text class="sub" x="242" y="330">Gateway + cache + observability</text>
  <rect class="card" x="420" y="300" width="180" height="40"/>
  <text class="title" x="432" y="316">safe-ai-agent</text>
  <text class="sub" x="432" y="330">Agent + guardrails + evals</text>
  <rect class="card" x="610" y="300" width="180" height="40"/>
  <text class="title" x="622" y="316">multi-agent</text>
  <text class="sub" x="622" y="330">A2A orchestration + tools</text>

  <!-- ─── LANGUAGE-SPECIFIC SERVICES ─── -->
  <text class="sec" x="40" y="362">LANGUAGE-SPECIFIC SERVICES</text>
  <text class="count" x="790" y="362" text-anchor="end">3 composites</text>
  <rect class="card-hi" x="40" y="370" width="180" height="40"/>
  <text class="title" x="52" y="386">spring-boot-microservice</text>
  <text class="sub" x="52" y="400">Spring Boot 4 + K8s deploy</text>
  <rect class="card" x="230" y="370" width="180" height="40"/>
  <text class="title" x="242" y="386">identity-aware-service</text>
  <text class="sub" x="242" y="400">Istio mTLS + Spring Security</text>
  <rect class="card" x="420" y="370" width="180" height="40"/>
  <text class="title" x="432" y="386">go-microservice</text>
  <text class="sub" x="432" y="400">Go service + evals + deploy</text>

  <!-- ─── TOOLS & EXTENSIONS ─── -->
  <text class="sec" x="40" y="432">TOOLS &amp; EXTENSIONS</text>
  <text class="count" x="790" y="432" text-anchor="end">4 composites</text>
  <rect class="card-hi" x="40" y="440" width="180" height="40"/>
  <text class="title" x="52" y="456">mcp-toolkit</text>
  <text class="sub" x="52" y="470">MCP server + prompts + evals</text>
  <rect class="card" x="230" y="440" width="180" height="40"/>
  <text class="title" x="242" y="456">chrome-ai-extension</text>
  <text class="sub" x="242" y="470">Browser ext + MCP + prompts</text>
  <rect class="card" x="420" y="440" width="180" height="40"/>
  <text class="title" x="432" y="456">vscode-ai-extension</text>
  <text class="sub" x="432" y="470">Editor ext + MCP + prompts</text>
  <rect class="card" x="610" y="440" width="180" height="40"/>
  <text class="title" x="622" y="456">internal-tool</text>
  <text class="sub" x="622" y="470">CLI or ext + MCP servers</text>

  <!-- ─── CROSS-FUNCTIONAL ─── -->
  <text class="sec" x="40" y="502">CROSS-FUNCTIONAL</text>
  <text class="count" x="790" y="502" text-anchor="end">2 composites · non-engineering</text>
  <rect class="card-hi" x="40" y="510" width="180" height="40"/>
  <text class="title" x="52" y="526">client-engagement</text>
  <text class="sub" x="52" y="540">Proposal + brief + playbook</text>
  <rect class="card" x="230" y="510" width="180" height="40"/>
  <text class="title" x="242" y="526">product-launch</text>
  <text class="sub" x="242" y="540">Eng + design + PRD + campaign</text>

  <!-- ─── ECOSYSTEM (left-bottom) ─── -->
  <rect class="card" x="40" y="580" width="750" height="110" rx="12"/>
  <text class="sec" x="60" y="602">ECOSYSTEM</text>

  <rect x="55" y="614" width="230" height="64" rx="6" fill="#1C2333" stroke="#34D399" stroke-width="1" opacity="0.8"/>
  <text class="title" x="170" y="632" text-anchor="middle">nanohype</text>
  <text class="sub" x="170" y="648" text-anchor="middle">Template catalog + SDK</text>
  <text class="sub" x="170" y="662" text-anchor="middle">Provider registries, skeletons</text>

  <rect x="300" y="614" width="230" height="64" rx="6" fill="#1C2333" stroke="#FFA657" stroke-width="1" opacity="0.8"/>
  <text class="title" x="415" y="632" text-anchor="middle">cdk-constructs</text>
  <text class="sub" x="415" y="648" text-anchor="middle">AWS CDK constructs</text>
  <text class="sub" x="415" y="662" text-anchor="middle">Fail-secure, isProd posture</text>

  <rect x="545" y="614" width="230" height="64" rx="6" fill="#1C2333" stroke="#58A6FF" stroke-width="1" opacity="0.8"/>
  <text class="title" x="660" y="632" text-anchor="middle">protohype</text>
  <text class="sub" x="660" y="648" text-anchor="middle">Runnable applications</text>
  <text class="sub" x="660" y="662" text-anchor="middle">Built from the layers above</text>

  <!-- ─── Right panel: Template layers ─── -->
  <rect class="card" x="800" y="78" width="370" height="678" rx="12"/>
  <text class="sec" x="820" y="100">TEMPLATE LAYERS</text>

  <rect x="820" y="110" width="330" height="96" rx="6" fill="#1C2333" stroke="#34D399" stroke-width="1" opacity="0.8"/>
  <text class="label" x="985" y="133" text-anchor="middle">AI SYSTEMS</text>
  <text class="sub" x="985" y="149" text-anchor="middle">agentic-loop · rag-pipeline · mcp-server-ts</text>
  <text class="sub" x="985" y="163" text-anchor="middle">mcp-server-python · eval-harness · ci-eval</text>
  <text class="sub" x="985" y="177" text-anchor="middle">prompt-library · guardrails · a2a-agent</text>
  <text class="sub" x="985" y="191" text-anchor="middle">multimodal-pipeline · fine-tune-pipeline · data-pipeline</text>

  <rect x="820" y="216" width="330" height="84" rx="6" fill="#1C2333" stroke="#58A6FF" stroke-width="1" opacity="0.8"/>
  <text x="985" y="240" fill="#58A6FF" font-size="9" font-weight="600" letter-spacing="0.1em" text-anchor="middle">APPLICATIONS</text>
  <text class="sub" x="985" y="256" text-anchor="middle">ts-service · go-service · go-cli · spring-boot-service</text>
  <text class="sub" x="985" y="270" text-anchor="middle">next-app · slack-bot · discord-bot · electron-app</text>
  <text class="sub" x="985" y="284" text-anchor="middle">chrome-ext · vscode-ext · api-gateway · worker-service</text>

  <line x1="985" y1="306" x2="985" y2="316" stroke="#30363D" stroke-width="1"/>
  <polygon points="981,316 989,316 985,322" fill="#30363D"/>

  <rect x="820" y="326" width="330" height="134" rx="6" fill="#1C2333" stroke="#D2A8FF" stroke-width="1" opacity="0.8"/>
  <text x="985" y="354" fill="#D2A8FF" font-size="9" font-weight="600" letter-spacing="0.1em" text-anchor="middle">COMPOSABLE MODULES</text>
  <text class="sub" x="985" y="370" text-anchor="middle">auth-ts · auth-go · database · cache · queue</text>
  <text class="sub" x="985" y="384" text-anchor="middle">rate-limit · storage · webhook · notifications</text>
  <text class="sub" x="985" y="398" text-anchor="middle">llm-gateway · llm-providers · llm-observability</text>
  <text class="sub" x="985" y="412" text-anchor="middle">vector-store · semantic-cache · search · knowledge-base</text>
  <text class="sub" x="985" y="426" text-anchor="middle">analytics · billing · feature-flags · media · observability</text>
  <text class="sub" x="985" y="440" text-anchor="middle">oauth-delegation · project-mgmt · spring-security</text>

  <line x1="985" y1="466" x2="985" y2="476" stroke="#30363D" stroke-width="1"/>
  <polygon points="981,476 989,476 985,482" fill="#30363D"/>

  <rect x="820" y="486" width="330" height="72" rx="6" fill="#1C2333" stroke="#FFA657" stroke-width="1" opacity="0.8"/>
  <text x="985" y="511" fill="#FFA657" font-size="9" font-weight="600" letter-spacing="0.1em" text-anchor="middle">INFRASTRUCTURE</text>
  <text class="sub" x="985" y="527" text-anchor="middle">aws · fly · gcp · vercel · cloudflare · druid</text>
  <text class="sub" x="985" y="541" text-anchor="middle">k8s-deploy · monorepo · monitoring-stack · istio-policy</text>

  <line x1="985" y1="564" x2="985" y2="574" stroke="#30363D" stroke-width="1"/>
  <polygon points="981,574 989,574 985,580" fill="#30363D"/>

  <rect x="820" y="584" width="330" height="68" rx="6" fill="#1C2333" stroke="#E6EDF3" stroke-width="1" opacity="0.8"/>
  <text x="985" y="607" fill="#E6EDF3" font-size="9" font-weight="600" letter-spacing="0.1em" text-anchor="middle">CROSS-FUNCTIONAL</text>
  <text class="sub" x="985" y="623" text-anchor="middle">design · qa · product · marketing · sales</text>
  <text class="sub" x="985" y="637" text-anchor="middle">operations · customer-success · agent briefs</text>

  <line x1="985" y1="658" x2="985" y2="668" stroke="#30363D" stroke-width="1"/>
  <polygon points="981,668 989,668 985,674" fill="#30363D"/>

  <rect x="820" y="678" width="330" height="64" rx="6" fill="#1C2333" stroke="#30363D" stroke-width="1"/>
  <text class="sub" x="985" y="697" text-anchor="middle">@nanohype/sdk · CLI · template contract</text>
  <text class="sub" x="985" y="711" text-anchor="middle">composite contract · validation · rendering</text>
  <text class="cmd" x="985" y="729" text-anchor="middle">scaffold · validate · render · compose</text>

  <circle class="dot" cx="812" cy="158" r="3" opacity="0.6"/>
  <circle class="dot" cx="812" cy="258" r="3" opacity="0.6"/>
  <circle class="dot" cx="812" cy="393" r="3" opacity="0.6"/>
  <circle class="dot" cx="812" cy="522" r="3" opacity="0.6"/>
  <circle class="dot" cx="812" cy="618" r="3" opacity="0.6"/>

  <!-- ─── Footer ─── -->
  <text class="dim" x="40" y="734">Pluggable provider registries · production-ready skeletons · one scaffold command</text>
  <text class="cmd" x="40" y="754">npx nanohype scaffold --composite ai-chatbot</text>
</svg>
